<mxfile host="Electron" agent="Mozilla/5.0 (X11; Linux x86_64) AppleWebKit/537.36 (KHTML, like Gecko) draw.io/25.0.1 Chrome/128.0.6613.186 Electron/32.2.6 Safari/537.36" version="25.0.1">
  <diagram name="Page-1" id="pwkZjAW4YcKqV5CRz82u">
    <mxGraphModel dx="667" dy="390" grid="1" gridSize="10" guides="1" tooltips="1" connect="1" arrows="1" fold="1" page="1" pageScale="1" pageWidth="850" pageHeight="1100" math="0" shadow="0">
      <root>
        <mxCell id="0" />
        <mxCell id="1" parent="0" />
        <mxCell id="bEdN1P7GM1xqIyK46hdl-1" value="Orchestrator" style="rounded=0;whiteSpace=wrap;html=1;" vertex="1" parent="1">
          <mxGeometry x="50" y="40" width="120" height="60" as="geometry" />
        </mxCell>
        <mxCell id="bEdN1P7GM1xqIyK46hdl-2" value="Domination Provider" style="rounded=0;whiteSpace=wrap;html=1;" vertex="1" parent="1">
          <mxGeometry x="425" y="40" width="120" height="60" as="geometry" />
        </mxCell>
        <mxCell id="bEdN1P7GM1xqIyK46hdl-3" value="" style="line;strokeWidth=2;direction=south;html=1;" vertex="1" parent="1">
          <mxGeometry x="105" y="100" width="10" height="160" as="geometry" />
        </mxCell>
        <mxCell id="bEdN1P7GM1xqIyK46hdl-4" value="" style="line;strokeWidth=2;direction=south;html=1;" vertex="1" parent="1">
          <mxGeometry x="480" y="100" width="10" height="160" as="geometry" />
        </mxCell>
        <mxCell id="bEdN1P7GM1xqIyK46hdl-5" value="" style="endArrow=classic;html=1;rounded=0;exitX=0.25;exitY=0.5;exitDx=0;exitDy=0;exitPerimeter=0;entryX=0.25;entryY=0.5;entryDx=0;entryDy=0;entryPerimeter=0;" edge="1" parent="1" source="bEdN1P7GM1xqIyK46hdl-3" target="bEdN1P7GM1xqIyK46hdl-4">
          <mxGeometry relative="1" as="geometry">
            <mxPoint x="200" y="130" as="sourcePoint" />
            <mxPoint x="300" y="130" as="targetPoint" />
          </mxGeometry>
        </mxCell>
        <mxCell id="bEdN1P7GM1xqIyK46hdl-6" value="Is Dominated (resultToCheck: double[2],&lt;div&gt;resultsToCheckAgainst: list&amp;lt;double[2]&amp;gt;&lt;/div&gt;" style="edgeLabel;resizable=0;html=1;;align=center;verticalAlign=middle;" connectable="0" vertex="1" parent="bEdN1P7GM1xqIyK46hdl-5">
          <mxGeometry relative="1" as="geometry" />
        </mxCell>
        <mxCell id="bEdN1P7GM1xqIyK46hdl-7" value="" style="endArrow=classic;html=1;rounded=0;entryX=0.75;entryY=0.5;entryDx=0;entryDy=0;entryPerimeter=0;exitX=0.75;exitY=0.5;exitDx=0;exitDy=0;exitPerimeter=0;" edge="1" parent="1" source="bEdN1P7GM1xqIyK46hdl-4" target="bEdN1P7GM1xqIyK46hdl-3">
          <mxGeometry relative="1" as="geometry">
            <mxPoint x="260" y="190" as="sourcePoint" />
            <mxPoint x="360" y="190" as="targetPoint" />
          </mxGeometry>
        </mxCell>
        <mxCell id="bEdN1P7GM1xqIyK46hdl-8" value="return true (&quot;Is dominated&quot;) or false (&quot;Is not dominated&quot;)" style="edgeLabel;resizable=0;html=1;;align=center;verticalAlign=middle;" connectable="0" vertex="1" parent="bEdN1P7GM1xqIyK46hdl-7">
          <mxGeometry relative="1" as="geometry" />
        </mxCell>
      </root>
    </mxGraphModel>
  </diagram>
</mxfile>
